<svg xmlns="http://www.w3.org/2000/svg" width="215.15" height="153.32" viewBox="0 0 215.15 153.32"><title>mail</title><path d="M211.7,138.91,151.12,73.22l60.63-60.74a2,2,0,0,1,3.4,1.41V137.56A2,2,0,0,1,211.7,138.91Zm-92.52-33.69a18.54,18.54,0,0,1-13.12,5.44h-.16a18.91,18.91,0,0,1-13.36-5.53l-18-17.93L13,149.94a2,2,0,0,0,1.42,3.39h187.1A2,2,0,0,0,203,150L141.27,83.09ZM105.9,96.73h0a4.94,4.94,0,0,0,3.52-1.46L201.14,3.4A2,2,0,0,0,199.73,0h-188a2,2,0,0,0-1.41,3.4l92,91.88A4.93,4.93,0,0,0,105.9,96.73ZM0,17.55V138.39a2,2,0,0,0,3.41,1.39L64.72,77.37,3.4,16.14A2,2,0,0,0,0,17.55Z" fill="#f2f2f2"/></svg>
