<svg xmlns="http://www.w3.org/2000/svg" width="32.41" height="53.09" viewBox="0 0 32.41 53.09"><title>questionmark</title><path d="M9.49,35.09v-2.6a11.53,11.53,0,0,1,1.44-5.87,18.89,18.89,0,0,1,5.27-5.31A22.06,22.06,0,0,0,21.08,17a6.21,6.21,0,0,0,1.18-3.69,4,4,0,0,0-1.69-3.48,8.05,8.05,0,0,0-4.71-1.2q-5.27,0-12,3.45L0,4.39A33.49,33.49,0,0,1,16.63,0q7.24,0,11.51,3.48a11.36,11.36,0,0,1,4.27,9.28,12.34,12.34,0,0,1-1.76,6.68Q28.9,22.25,24,25.77a20.65,20.65,0,0,0-4.27,3.8,5.9,5.9,0,0,0-.9,3.41v2.11Zm-1.12,12a5.89,5.89,0,0,1,1.58-4.46,6.42,6.42,0,0,1,4.61-1.51,6.23,6.23,0,0,1,4.52,1.55,5.88,5.88,0,0,1,1.6,4.43,5.88,5.88,0,0,1-1.62,4.38,6.12,6.12,0,0,1-4.5,1.6A6.31,6.31,0,0,1,10,51.52,5.85,5.85,0,0,1,8.37,47.11Z" fill="#f2f2f2"/></svg>