<svg xmlns="http://www.w3.org/2000/svg" width="18.47" height="15" viewBox="0 0 18.47 15"><title>twitter</title><path d="M18.47,1.77a7.57,7.57,0,0,1-2.18.6A3.82,3.82,0,0,0,18,.28a7.55,7.55,0,0,1-2.41.92A3.79,3.79,0,0,0,9,3.79a3.93,3.93,0,0,0,.1.86,10.75,10.75,0,0,1-7.81-4A3.79,3.79,0,0,0,2.46,5.75,3.73,3.73,0,0,1,.74,5.27v0A3.8,3.8,0,0,0,3.78,9a3.91,3.91,0,0,1-1,.13,3.83,3.83,0,0,1-.72-.07,3.8,3.8,0,0,0,3.54,2.63A7.61,7.61,0,0,1,.9,13.35,8.13,8.13,0,0,1,0,13.3,10.72,10.72,0,0,0,5.81,15,10.7,10.7,0,0,0,16.58,4.23V3.74a7.63,7.63,0,0,0,1.89-2Zm0,0" fill="#f2f2f2"/></svg>