<svg id="Ebene_1" data-name="Ebene 1" xmlns="http://www.w3.org/2000/svg" width="100" height="100" viewBox="0 0 100 100">
  <defs>
    <style>
      .cls-1 {
        fill: #333;
      }
    </style>
  </defs>
  <g>
    <path class="cls-1" d="M50,0A25.74,25.74,0,1,0,75.74,25.74,25.77,25.77,0,0,0,50,0Zm0,42.47A16.73,16.73,0,1,1,66.73,25.74,16.75,16.75,0,0,1,50,42.47Z"/>
    <path class="cls-1" d="M77.44,47.31A6.63,6.63,0,0,0,73,49c-.25.22-1.62,1.52-1.92,1.79a32.71,32.71,0,0,1-42.14,0c-.3-.27-1.67-1.57-1.92-1.79a6.63,6.63,0,0,0-4.45-1.72c-12.27,0-19.2,25.57-19.2,46A6.72,6.72,0,0,0,10.07,100H89.93a6.72,6.72,0,0,0,6.71-6.71C96.64,72.88,89.71,47.31,77.44,47.31Z"/>
  </g>
</svg>
